<svg id="Layer_1" data-name="Layer 1" xmlns="http://www.w3.org/2000/svg" viewBox="0 0 441.66 241.2"><defs><style>.cls-1{fill:#fff;}</style></defs><path class="cls-1" d="M-680.3-148.69c7.5-4.5,11.6-6.8,20.9-11.6,1.6-.8,2.7-1,3.4-.5s1.4,2.2,2.2,5.3a24.3,24.3,0,0,1,1,6,9,9,0,0,1-1.6,4.2,7.33,7.33,0,0,0-1.4,3.8,16.87,16.87,0,0,0,.8,5q16.35,61.8,32.5,123.4a20.32,20.32,0,0,0,1.4,3.9,8.15,8.15,0,0,0,2.6,2.3,7.39,7.39,0,0,1,3.5,4.8c1.4,5.5,2.1,8.5,2,9.1s-.7,1-1.8,1.2c-10.4,1.4-15.5,2.2-25.3,3.9-1.1.2-2-1.3-2.9-4.5-.8-2.7-1.3-4.8-1.6-6.1a3.89,3.89,0,0,1,1.2-3.7c1.1-1.2,1.3-3.2.6-5.6q-11.55-41.55-23.3-83.1c3.1,23.2,6.1,46.4,9.3,69.6l-5.6,1.5c-8.5-19.6-16.9-39.4-25-59.2l20.2,76.3c.6,2.5,1.7,4.2,3.2,5.1,1.8,1.1,3.3,3.3,4.2,6.9,1.1,4,.9,6.2-.6,6.4-4.5.8-6.7,1.3-11,2.1-1.2.2-2.3-1.5-3.2-5.2a11.6,11.6,0,0,1,0-6.4,10.76,10.76,0,0,0,.7-3.1,16.52,16.52,0,0,0-.5-3.8q-13.2-53.25-26.4-106.4c-.5-2.2-1.2-4.4-1.9-6.6a7.24,7.24,0,0,0-2-3.1,4.21,4.21,0,0,1-1.6-2.5c-.4-1.6-.5-2.4-.9-4a54.42,54.42,0,0,1-1.1-5.5,1.8,1.8,0,0,1,.4-1.6c4-2.9,6.5-4.7,12.5-8.7q11.7,27.75,23.8,55.4Q-676.1-116.24-680.3-148.69Z" transform="translate(708.34 203.29)"/><path class="cls-1" d="M-650.2-154.79c-.6-2.3-.9-3.4-1.4-5.6s-.1-3.7,1.5-4.4c12.1-5.8,24.5-10.7,37.1-15.4,1.5-.5,2.6-.6,3.1-.2s1.1,1.9,1.6,4.6a33.09,33.09,0,0,1,.9,7.7,3.24,3.24,0,0,1-1.7,2.5c-3.3,2-4.4,5.6-3.4,10.8l26.9,136.2a9.24,9.24,0,0,0,4.3,6.4,7.74,7.74,0,0,1,2.8,2.6,16.2,16.2,0,0,1,1.2,4.3c.3,1.8.5,2.7.8,4.5.4,2.4.6,3.9.4,4.2s-.8.5-1.9.6c-10,1-20,2.1-29.9,3.4-1.1.1-1.9-.6-2.2-2.1a75.1,75.1,0,0,1-2.1-9.4,3.48,3.48,0,0,1,1.4-3q2.85-2.1,1.8-6.6-15.6-63.75-31.1-127.6a22.77,22.77,0,0,0-2.4-6.6,5.81,5.81,0,0,0-4-2.4,4.71,4.71,0,0,1-2.6-1.1A16.74,16.74,0,0,1-650.2-154.79Z" transform="translate(708.34 203.29)"/><path class="cls-1" d="M-525.7-11.89C-529.5-2.19-534.4,3-540,3c-13.4.1-21.3-16.9-26.5-27-10.4-20.2-16.3-42.9-20.5-65.3-4.5-24.1-6.9-51.1.7-74.2,4.5-13.8,13-32.6,30.5-35.5a27.1,27.1,0,0,1,18.7,3.4c1.8,1,3.1,1.5,4.1,1.4,1.3-.2,2.4-1.7,3.2-4.6.8-2.6,2.3-4.1,4.5-4.3l1.4-.1,3.6-.1c2.4.2,4,2,4.6,5.2,2.6,13,5,26,7.3,39.1a55.67,55.67,0,0,1,1,8.2c0,2.9-1.9,4.4-5.5,4.6s-5.8-.3-6.8-1.4-3.2-5.4-6.5-12.5c-4.5-9.6-8.5-16.2-11.9-19.7s-7.1-5-10.5-4.4c-12.5,2.4-12.2,18.9-11.1,28.8q6.75,64.95,13.4,129.8c1,9.5,3.2,14.1,6.7,13.9,3.8-.3,5.4-5.2,4.7-14.8-1.6-21.3-3.1-42.6-4.7-63.9-.3-4.2-1.5-6.7-3.6-7.7-2.3-1-3.6-3.5-4-7.6-.4-4.3-.3-7,.2-7.9s1.8-1.5,3.7-1.8c13.2-1.7,26.4-2.7,39.7-3.1,2-.1,3.4.4,4,1.3s1,3,.9,6.2a23.26,23.26,0,0,1-.8,6.9,6,6,0,0,1-3,2.9c-2.3,1.1-3.4,3.4-3.4,6.9-.2,28.1-.4,56.3-.6,84.4,0,5-.2,8.2-.6,9.5a2.77,2.77,0,0,1-3,2,6.55,6.55,0,0,1-3.1-.5,13.49,13.49,0,0,1-2.7-3.3C-519-7.19-522.4-10.39-525.7-11.89Z" transform="translate(708.34 203.29)"/><path class="cls-1" d="M-449.8-112.79c5.8.6,8.7,1,14.3,1.8l10-60.6a10.27,10.27,0,0,0,.2-3.9,6.58,6.58,0,0,0-2.1-2.9q-2-1.8-1.2-7.2c.7-4.5,1.3-7.2,1.8-8.2s1.6-1.3,3.1-1c14.2,3,28.1,6.4,42,10.6,1.8.5,2.7,1.3,2.9,2.2s-.3,3.6-1.4,8c-.7,2.7-1.2,4.2-1.7,4.6a21.37,21.37,0,0,1-4.2,1.6c-2.5.8-4.2,3-5,6.2q-15.9,69.3-32,138.5-1.2,5.4.9,9c1.1,1.8,1.6,3.4,1.2,4.8l-1.8,7.2a9.77,9.77,0,0,1-1.1,3c-.4.5-1.2.7-2.5.6q-14.7-1-29.4-1.5c-1,0-1.6-.4-1.7-1a61.53,61.53,0,0,1,1-9,10.54,10.54,0,0,1,2.9-6.2,10.14,10.14,0,0,0,3.2-6c4.1-25.1,8.3-50.1,12.4-75.2-5.5-.7-8.3-1.1-13.9-1.6-3.4,25.6-6.9,51.3-10.3,76.9a9.2,9.2,0,0,0,1.1,6.3c1,1.7,1.3,4.2.9,7.3-.6,4.3-1.1,6.8-1.5,7.4a2.1,2.1,0,0,1-1.8,1q-15.6-.45-31.2-.3c-1,0-1.6-.4-1.8-1.1s-.2-3.7,0-8.8A24.16,24.16,0,0,1-496-15a7.29,7.29,0,0,1,2.2-2.7,9.93,9.93,0,0,0,3.6-7.3q4.2-75.15,8.4-150.1c.1-2.4-1.1-4.7-3.8-6.9s-4-5.5-3.9-9.6c.2-4.4.6-7,1.3-7.9s2.2-1.3,4.5-1.2c15.5.6,30.7,1.9,46.1,3.9,1.9.3,3.2.9,3.8,1.8s.7,2.7.3,5.6c-.3,2.3-.5,3.4-.8,5.7a5.55,5.55,0,0,1-3.2,3.5c-2.2,1.1-3.7,3.2-4.1,6.4C-444.3-153.79-447.1-133.29-449.8-112.79Z" transform="translate(708.34 203.29)"/><path class="cls-1" d="M-354-160.59c-1.4-.6-2.1-.8-3.6-1.4-1.2-.5-2.5.3-3.8,2.1s-3.8,7.5-7.3,16.8c-1.5,4.1-2.9,6.6-3.9,7.4s-2.8.8-5.2.1-3.7-1.6-4.2-2.6-.4-2.7.2-5c.4-1.4.7-2.7,1.1-4.1l7.8-26.1c.9-3.1,1.8-4.9,2.8-5.6s2.8-.6,5.5.4a426.76,426.76,0,0,1,53.6,24.7q2,1,2.1,2.1c.1.7-.4,2.7-1.4,6.1-2.5,8.4-3.8,12.5-6.3,20.9-.5,1.6-1,3.3-1.6,4.9a17.15,17.15,0,0,1-2.1,4.3c-.7,1-1.8,1-3.4.3-2-1-3.3-1.9-3.6-2.8s-.1-3.3.8-7c1.2-5.1,2.1-10.3,2.8-15.5.5-4.2.1-6.6-1.1-7.2l-2-1q-22.35,66-44.8,132c-1.3,3.8-1.2,6.5.3,8.3a3.19,3.19,0,0,1,.8,2.4A27.23,27.23,0,0,1-372-.69a27.14,27.14,0,0,1-2.6,6,3.47,3.47,0,0,1-2.8.6c-10.6-1.3-16-1.8-27.2-2.9-1.1-.1-1.7-.5-1.8-1.3s.3-2.9,1.3-6.3c1.2-4.1,2.6-6.6,4.2-7.3a7.55,7.55,0,0,0,3.2-2.3,15.67,15.67,0,0,0,1.8-4.2Q-375-89.34-354-160.59Z" transform="translate(708.34 203.29)"/><path class="cls-1" d="M-301.8-50.49l-16.4,46.7c-.8,2.4-.6,4.3.8,5.7a4,4,0,0,1,1,1.8c.1.6-.5,2.7-1.7,6.3a15.6,15.6,0,0,1-1.8,4,2.12,2.12,0,0,1-1.9.4c-9.9-1.8-15-2.6-25.6-4.2-1.3-.2-1.6-1.3-.9-3.2.8-2.2,1.2-3.4,2.1-5.6A6.48,6.48,0,0,1-341.8-3a5.45,5.45,0,0,0,2.4-1.5,14.7,14.7,0,0,0,1.9-4l17-46c4.9-24,9.6-48.1,14.3-72.2.7-3.7.5-6.5-.6-8.5a4.81,4.81,0,0,1-.1-3.9c1.1-3,1.6-4.4,2.7-7.4.6-1.8,1.5-2.3,2.6-1.7,9.4,5.6,13.5,8.3,20.3,13.1a1.66,1.66,0,0,1,.6,1.6,41.27,41.27,0,0,1-1.5,5c-.6,1.6-1.2,3.2-1.9,4.8a2.94,2.94,0,0,1-1.5,1.4,4.88,4.88,0,0,0-2.2,2.9,24.54,24.54,0,0,0-.8,2.9c-3,14.4-6,28.8-9,43.3,6.5-12.3,12.9-24.6,19.1-37a6.77,6.77,0,0,0,.6-1.6,17.06,17.06,0,0,0,.7-6.7,7.69,7.69,0,0,1,.3-3l1.8-5.3c.7-1.9,1.4-2.7,2-2.3,2.8,2.1,4,3,6.1,4.6.5.4.4,1.5-.2,3.4l-1.7,5.5a6.44,6.44,0,0,1-1.5,2.5,21.69,21.69,0,0,0-3.6,5.8Q-287-78.64-301.8-50.49Z" transform="translate(708.34 203.29)"/><path class="cls-1" d="M-318.6,35.81A1103.17,1103.17,0,0,0-673,37.91v-5.6a956.55,956.55,0,0,1,353.8-2.1C-319,32-318.8,33.91-318.6,35.81Z" transform="translate(708.34 203.29)"/></svg>